<svg width="113" height="36" viewBox="0 0 113 36" fill="none" xmlns="http://www.w3.org/2000/svg">
<path d="M31.5003 25.5586C31.5003 28.4457 30.539 30.864 28.6164 32.8136C26.6959 34.7627 24.307 35.7375 21.4498 35.7381H13.0282V21.9241H18.4641V30.7054H21.4498C22.8888 30.7054 24.0612 30.2347 24.9672 29.2933C25.8745 28.3552 26.3275 27.1103 26.3262 25.5586C26.3262 24.0069 25.8732 22.7607 24.9672 21.8199C24.0619 20.8799 22.8894 20.4099 21.4498 20.4098H10.0424C8.44527 20.4331 6.86591 20.0776 5.43784 19.3734C5.34589 19.3282 5.25395 19.279 5.16404 19.2298C4.31804 18.7634 3.54691 18.1762 2.87577 17.4874C1.05359 15.654 0.0230427 13.1979 0 10.6335L0 9.84478C0.0799666 7.12486 1.03858 4.83435 2.87585 2.97327C4.79637 1.02433 7.18523 0.0495144 10.0424 0.0488281H18.4641V13.8648H13.0282V5.08157H10.0424C8.60351 5.08157 7.43107 5.5516 6.52511 6.49167C5.61779 7.43179 5.16412 8.67735 5.16412 10.2284C5.16412 11.782 5.61779 13.0282 6.52511 13.967C7.4304 14.9071 8.60284 15.3778 10.0424 15.3791H21.4498C24.3077 15.3791 26.6965 16.3526 28.6164 18.2996C30.539 20.2486 31.5003 22.6683 31.5003 25.5586Z" fill="#4A4A4A"/>
<path d="M51.0401 0H46.1815L41.0332 15.3526H45.3569L46.0255 13.1373H51.2183L51.887 15.3526H56.1885L51.0401 0ZM47.0507 9.75991L48.6108 4.54005L50.1932 9.75991H47.0507Z" fill="#E97522"/>
<path d="M63.678 1.28116e-08H57.3262V10.1923H61.427V3.79429H63.678C64.1714 3.77703 64.6629 3.86291 65.12 4.04628C65.5772 4.22965 65.9896 4.50633 66.3302 4.85806C67.0134 5.56734 67.3551 6.50675 67.3554 7.67629C67.3554 8.84615 67.0136 9.78556 66.3302 10.4945C65.9897 10.8463 65.5772 11.123 65.1201 11.3064C64.6629 11.4897 64.1714 11.5756 63.678 11.5583H57.3262V15.3526H63.678C65.8321 15.3526 67.6336 14.6178 69.0825 13.1484C70.5314 11.6789 71.2558 9.85485 71.2555 7.67629C71.2555 5.49784 70.5312 3.67381 69.0825 2.20422C67.6338 0.734628 65.8324 -0.000112027 63.678 1.28116e-08Z" fill="#E97522"/>
<path d="M79.4554 1.28116e-08H73.1035V3.79429H79.4554C79.9487 3.77703 80.4402 3.86291 80.8974 4.04628C81.3545 4.22964 81.767 4.50632 82.1075 4.85806C82.7907 5.5674 83.1324 6.50681 83.1327 7.67629C83.1327 8.84615 82.791 9.78556 82.1075 10.4945C81.767 10.8463 81.3546 11.123 80.8974 11.3064C80.4402 11.4897 79.9487 11.5756 79.4554 11.5583H77.2043V5.16032H73.1035V15.3526H79.4554C81.6094 15.3526 83.4109 14.6178 84.8598 13.1484C86.3087 11.6789 87.0331 9.85485 87.0328 7.67629C87.0328 5.49784 86.3085 3.67381 84.8598 2.20422C83.4111 0.734628 81.6097 -0.000112027 79.4554 1.28116e-08Z" fill="#E97522"/>
<path d="M47.0952 20.3183C47.8254 20.2993 48.5521 20.4234 49.2331 20.6832C49.9142 20.9429 50.536 21.3333 51.0625 21.8316C52.1321 22.8407 52.667 24.1274 52.6671 25.6919C52.6671 27.2566 52.1322 28.5433 51.0625 29.5518C50.5361 30.0502 49.9143 30.4406 49.2332 30.7004C48.5521 30.9602 47.8254 31.0842 47.0952 31.0651H45.0224V35.6711H41.0332V20.3183H47.0952ZM47.0952 27.3367C47.305 27.3411 47.5135 27.3024 47.7073 27.2231C47.9011 27.1438 48.0759 27.0256 48.2207 26.876C48.3736 26.7188 48.4928 26.533 48.5714 26.3296C48.6499 26.1262 48.6861 25.9093 48.6778 25.6919C48.6868 25.476 48.6509 25.2605 48.5723 25.0588C48.4937 24.857 48.374 24.6732 48.2207 24.5185C48.0742 24.3719 47.8988 24.2563 47.7053 24.1789C47.5117 24.1016 47.3041 24.064 47.0952 24.0686H45.0224V27.3367H47.0952Z" fill="#B1B1B1"/>
<path d="M62.6086 20.3184H66.5756V35.6712H62.6086V29.7715H58.2178V35.6712H54.2285V20.3184H58.2178V25.9988H62.6086V20.3184Z" fill="#B1B1B1"/>
<path d="M82.4324 33.6871C80.8759 35.171 78.7938 36.0007 76.6266 36.0007C74.4595 36.0007 72.3773 35.171 70.8208 33.6871C70.0487 32.95 69.4395 32.0641 69.031 31.0848C68.6226 30.1055 68.4239 29.0538 68.4471 27.9955C68.4239 26.9372 68.6227 25.8855 69.0311 24.9062C69.4395 23.9269 70.0488 23.041 70.8208 22.3039C72.3773 20.82 74.4595 19.9902 76.6266 19.9902C78.7938 19.9902 80.8759 20.82 82.4324 22.3039C83.2044 23.0411 83.8136 23.927 84.222 24.9063C84.6304 25.8856 84.8292 26.9372 84.806 27.9955C84.8293 29.0538 84.6305 30.1055 84.2221 31.0848C83.8137 32.0641 83.2044 32.95 82.4324 33.6871ZM73.6177 30.9894C74.3258 31.7321 75.2748 32.2085 76.3015 32.3366C77.3281 32.4647 78.368 32.2364 79.2419 31.6911C80.1159 31.1457 80.7692 30.3175 81.0893 29.3491C81.4094 28.3807 81.3762 27.3327 80.9955 26.3857C80.6148 25.4388 79.9104 24.6521 79.0037 24.1614C78.0969 23.6706 77.0446 23.5064 76.0281 23.6971C75.0116 23.8878 74.0944 24.4214 73.4348 25.206C72.7751 25.9907 72.4141 26.9771 72.4141 27.9955C72.3953 28.5491 72.4925 29.1006 72.6995 29.6156C72.9066 30.1307 73.2191 30.5983 73.6177 30.9894Z" fill="#B1B1B1"/>
<path d="M96.5741 20.3184V24.1126H92.7182V35.6712H88.7289V24.1126H84.873V20.3184H96.5741Z" fill="#B1B1B1"/>
<path d="M110.626 33.6871C109.069 35.171 106.987 36.0007 104.82 36.0007C102.653 36.0007 100.571 35.171 99.0142 33.6871C98.2421 32.95 97.6328 32.0641 97.2244 31.0848C96.816 30.1055 96.6172 29.0538 96.6405 27.9955C96.6173 26.9372 96.8161 25.8855 97.2245 24.9062C97.6329 23.9269 98.2421 23.041 99.0141 22.3039C100.571 20.82 102.653 19.9902 104.82 19.9902C106.987 19.9902 109.069 20.82 110.626 22.3039C111.398 23.0411 112.007 23.927 112.415 24.9063C112.824 25.8856 113.023 26.9372 112.999 27.9955C113.023 29.0538 112.824 30.1055 112.415 31.0848C112.007 32.0641 111.398 32.95 110.626 33.6871ZM101.811 30.9894C102.519 31.7321 103.468 32.2085 104.495 32.3366C105.521 32.4647 106.561 32.2364 107.435 31.6911C108.309 31.1457 108.963 30.3175 109.283 29.3491C109.603 28.3807 109.57 27.3327 109.189 26.3857C108.808 25.4388 108.104 24.6521 107.197 24.1614C106.29 23.6706 105.238 23.5064 104.221 23.6971C103.205 23.8878 102.288 24.4214 101.628 25.206C100.968 25.9907 100.607 26.9771 100.607 27.9955C100.589 28.5491 100.686 29.1006 100.893 29.6156C101.1 30.1307 101.413 30.5983 101.811 30.9894Z" fill="#B1B1B1"/>
</svg>
